<svg width="150" height="26" viewBox="0 0 150 26" fill="none" xmlns="http://www.w3.org/2000/svg">
<path d="M14.7821 20.9948C14.5256 20.2553 14.26 19.5248 13.9853 18.8033C13.7105 18.0819 13.4449 17.3424 13.1885 16.5848H5.16549C4.90904 17.3424 4.64344 18.0909 4.36868 18.8304C4.11224 19.5519 3.8558 20.2733 3.59935 20.9948H0C0.714376 18.9927 1.39212 17.1439 2.03322 15.4485C2.67433 13.753 3.29712 12.1478 3.90159 10.6327C4.52438 9.11759 5.13801 7.67464 5.74248 6.30385C6.34695 4.93306 6.96974 3.5803 7.61085 2.24558H10.8805C11.5216 3.5803 12.1444 4.93306 12.7489 6.30385C13.3533 7.67464 13.9578 9.11759 14.5623 10.6327C15.1851 12.1478 15.817 13.753 16.4581 15.4485C17.1175 17.1439 17.8044 18.9927 18.5188 20.9948H14.7821ZM9.17698 5.87097C8.75568 6.82692 8.27027 7.99029 7.72075 9.36108C7.18955 10.7319 6.63087 12.2199 6.04472 13.8252H12.3092C11.7231 12.2199 11.1553 10.7229 10.6057 9.33403C10.0562 7.9452 9.57996 6.79084 9.17698 5.87097Z" fill="#9CA3AF"/>
<path d="M25.7613 21.2653C24.7722 21.2473 23.9479 21.1391 23.2885 20.9407C22.6474 20.7423 22.1345 20.4627 21.7498 20.102C21.3652 19.7232 21.0904 19.2633 20.9255 18.7222C20.779 18.163 20.7057 17.5317 20.7057 16.8283V0.541102L24.0303 0V16.206C24.0303 16.6028 24.0578 16.9365 24.1128 17.2071C24.186 17.4776 24.3051 17.7121 24.4699 17.9105C24.6348 18.0909 24.8546 18.2352 25.1294 18.3434C25.4224 18.4336 25.7888 18.5057 26.2284 18.5598L25.7613 21.2653Z" fill="#9CA3AF"/>
<path d="M38.4518 13.9875C38.4518 12.5265 38.1129 11.3902 37.4352 10.5786C36.7757 9.76691 35.7042 9.36108 34.2205 9.36108C33.9091 9.36108 33.5794 9.37912 33.2313 9.41519C32.9016 9.43323 32.5719 9.48734 32.2422 9.57752V17.667C32.5353 17.8654 32.92 18.0548 33.3962 18.2352C33.8908 18.3975 34.4128 18.4787 34.9623 18.4787C36.1713 18.4787 37.0505 18.0728 37.6 17.2612C38.1679 16.4495 38.4518 15.3583 38.4518 13.9875ZM41.8588 13.9334C41.8588 15.0156 41.7123 16.0076 41.4192 16.9095C41.1444 17.8113 40.7415 18.5869 40.2102 19.2362C39.679 19.8855 39.0105 20.3906 38.2045 20.7513C37.4169 21.112 36.5193 21.2924 35.5119 21.2924C34.8341 21.2924 34.2113 21.2112 33.6435 21.0489C33.0756 20.8866 32.6086 20.7062 32.2422 20.5078V26H28.9176V7.30489C29.5954 7.12452 30.4288 6.95317 31.4179 6.79084C32.4071 6.62851 33.4512 6.54735 34.5502 6.54735C35.6859 6.54735 36.7025 6.71869 37.6 7.06139C38.4976 7.40409 39.2577 7.9001 39.8805 8.54943C40.5216 9.18071 41.0071 9.9563 41.3368 10.8762C41.6848 11.778 41.8588 12.7971 41.8588 13.9334Z" fill="#9CA3AF"/>
<path d="M45.2851 20.9948V0.541102L48.6097 0V7.00728C48.9761 6.88103 49.3974 6.77281 49.8736 6.68262C50.3682 6.59244 50.8536 6.54735 51.3299 6.54735C52.4839 6.54735 53.4364 6.70968 54.1874 7.03434C54.9567 7.34096 55.5703 7.78287 56.0283 8.36004C56.4862 8.91918 56.8067 9.59556 56.9899 10.3892C57.1914 11.1828 57.2922 12.0666 57.2922 13.0406V20.9948H53.9676V13.5546C53.9676 12.7971 53.9126 12.1568 53.8027 11.6337C53.7111 11.0926 53.5463 10.6597 53.3081 10.3351C53.0883 9.99237 52.7861 9.74887 52.4014 9.60458C52.0168 9.44225 51.5405 9.36108 50.9727 9.36108C50.5331 9.36108 50.0843 9.40617 49.6264 9.49636C49.1684 9.58654 48.8296 9.66771 48.6097 9.73985V20.9948H45.2851Z" fill="#9CA3AF"/>
<path d="M66.3326 18.6951C67.3584 18.6951 68.1369 18.641 68.6681 18.5328V14.9074C68.4849 14.8533 68.2193 14.7992 67.8713 14.7451C67.5232 14.6909 67.1386 14.6639 66.7173 14.6639C66.3509 14.6639 65.9754 14.6909 65.5908 14.7451C65.2244 14.7992 64.8855 14.8984 64.5742 15.0427C64.2811 15.187 64.0429 15.3944 63.8598 15.6649C63.6766 15.9174 63.585 16.2421 63.585 16.6389C63.585 17.4145 63.8323 17.9556 64.3269 18.2622C64.8214 18.5508 65.49 18.6951 66.3326 18.6951ZM66.0579 6.49324C67.1569 6.49324 68.0819 6.62851 68.8329 6.89906C69.5839 7.16961 70.1793 7.54839 70.6189 8.03538C71.0768 8.52237 71.3974 9.11759 71.5805 9.82102C71.782 10.5064 71.8828 11.264 71.8828 12.0937V20.6701C71.3699 20.7784 70.5914 20.9046 69.5473 21.0489C68.5215 21.2112 67.3584 21.2924 66.0579 21.2924C65.1969 21.2924 64.4093 21.2112 63.6949 21.0489C62.9805 20.8866 62.3669 20.625 61.854 20.2643C61.3595 19.9036 60.9656 19.4346 60.6726 18.8574C60.3978 18.2803 60.2604 17.5678 60.2604 16.7201C60.2604 15.9084 60.4161 15.223 60.7275 14.6639C61.0572 14.1048 61.4968 13.6538 62.0464 13.3111C62.5959 12.9504 63.2278 12.6979 63.9422 12.5536C64.6749 12.3913 65.4351 12.3101 66.2227 12.3101C66.5891 12.3101 66.9737 12.3371 67.3767 12.3913C67.7797 12.4273 68.2101 12.4995 68.6681 12.6077V12.0666C68.6681 11.6878 68.6223 11.3271 68.5307 10.9844C68.4391 10.6417 68.2742 10.3441 68.0361 10.0916C67.8163 9.82102 67.5141 9.6136 67.1294 9.4693C66.7631 9.32501 66.296 9.25286 65.7281 9.25286C64.9588 9.25286 64.2536 9.30697 63.6125 9.41519C62.9714 9.52341 62.4493 9.64967 62.0464 9.79396L61.6342 7.14256C62.0555 6.99826 62.6691 6.85397 63.4751 6.70968C64.2811 6.56538 65.142 6.49324 66.0579 6.49324Z" fill="#9CA3AF"/>
<path d="M80.735 18.4516C81.9805 18.4516 82.8873 18.2442 83.4551 17.8293C84.0229 17.4145 84.3068 16.8283 84.3068 16.0708C84.3068 15.6198 84.2061 15.232 84.0046 14.9074C83.8214 14.5827 83.5467 14.2941 83.1803 14.0416C82.8323 13.7711 82.4018 13.5276 81.889 13.3111C81.3761 13.0767 80.7899 12.8512 80.1305 12.6348C79.4711 12.4003 78.83 12.1478 78.2072 11.8772C77.6027 11.5886 77.0623 11.2369 76.5861 10.8221C76.1282 10.4072 75.7527 9.9112 75.4596 9.33403C75.1848 8.75685 75.0474 8.06243 75.0474 7.25078C75.0474 5.55532 75.6428 4.22962 76.8334 3.27367C78.024 2.29969 79.6451 1.81269 81.6966 1.81269C82.8873 1.81269 83.9405 1.94797 84.8564 2.21852C85.7906 2.47104 86.5232 2.75061 87.0544 3.05723L85.9829 5.81686C85.3601 5.47416 84.6732 5.21263 83.9222 5.03226C83.1895 4.85189 82.4293 4.76171 81.6417 4.76171C80.7075 4.76171 79.9748 4.95109 79.4436 5.32986C78.9307 5.70864 78.6743 6.24072 78.6743 6.92612C78.6743 7.34096 78.7567 7.7017 78.9215 8.00832C79.1047 8.29691 79.352 8.55845 79.6634 8.79292C79.9931 9.0274 80.3686 9.24384 80.7899 9.44225C81.2295 9.64065 81.7058 9.83004 82.2187 10.0104C83.1162 10.3351 83.913 10.6687 84.6091 11.0114C85.3235 11.3361 85.9188 11.7329 86.395 12.2019C86.8896 12.6528 87.2651 13.1939 87.5215 13.8252C87.778 14.4384 87.9062 15.187 87.9062 16.0708C87.9062 17.7662 87.2926 19.0829 86.0653 20.0208C84.8564 20.9407 83.0796 21.4006 80.735 21.4006C79.9473 21.4006 79.2238 21.3465 78.5644 21.2383C77.9233 21.1481 77.3463 21.0309 76.8334 20.8866C76.3388 20.7423 75.9083 20.598 75.542 20.4537C75.1757 20.2914 74.8826 20.1471 74.6628 20.0208L75.6794 17.2341C76.174 17.5047 76.8425 17.7752 77.6851 18.0458C78.5277 18.3163 79.5443 18.4516 80.735 18.4516Z" fill="#9CA3AF"/>
<path d="M93.4025 13.9875C93.4025 15.3583 93.6772 16.4495 94.2268 17.2612C94.7946 18.0728 95.683 18.4787 96.8919 18.4787C97.4414 18.4787 97.9543 18.3975 98.4306 18.2352C98.9251 18.0548 99.319 17.8654 99.612 17.667V9.57752C99.3739 9.52341 99.0717 9.47832 98.7053 9.44225C98.3573 9.38814 97.8994 9.36108 97.3315 9.36108C96.1043 9.36108 95.1426 9.77593 94.4466 10.6056C93.7505 11.4173 93.4025 12.5446 93.4025 13.9875ZM89.9954 13.9334C89.9954 12.8151 90.1603 11.8051 90.49 10.9032C90.838 9.98335 91.3234 9.20777 91.9462 8.57648C92.5873 7.92716 93.3567 7.43115 94.2542 7.08845C95.1518 6.72771 96.1684 6.54735 97.3041 6.54735C98.4397 6.54735 99.5021 6.62851 100.491 6.79084C101.48 6.95317 102.296 7.12452 102.937 7.30489V26H99.612V20.5078C99.2274 20.7062 98.7511 20.8866 98.1833 21.0489C97.6338 21.2112 97.0201 21.2924 96.3424 21.2924C95.3166 21.2924 94.4099 21.1211 93.6223 20.7784C92.8346 20.4176 92.1752 19.9126 91.644 19.2633C91.1128 18.6139 90.7007 17.8384 90.4076 16.9365C90.1328 16.0347 89.9954 15.0336 89.9954 13.9334Z" fill="#9CA3AF"/>
<path d="M118.947 20.5619C118.306 20.7242 117.472 20.8866 116.447 21.0489C115.421 21.2293 114.294 21.3195 113.067 21.3195C111.913 21.3195 110.942 21.1571 110.155 20.8325C109.385 20.5078 108.763 20.0569 108.286 19.4797C107.828 18.9025 107.499 18.2171 107.297 17.4235C107.096 16.6119 106.995 15.7281 106.995 14.7721V6.84495H110.32V14.2581C110.32 15.7732 110.539 16.8554 110.979 17.5047C111.437 18.154 112.225 18.4787 113.342 18.4787C113.745 18.4787 114.166 18.4606 114.606 18.4246C115.064 18.3885 115.403 18.3434 115.622 18.2893V6.84495H118.947V20.5619Z" fill="#9CA3AF"/>
<path d="M128.234 18.6951C129.26 18.6951 130.038 18.641 130.57 18.5328V14.9074C130.386 14.8533 130.121 14.7992 129.773 14.7451C129.425 14.6909 129.04 14.6639 128.619 14.6639C128.252 14.6639 127.877 14.6909 127.492 14.7451C127.126 14.7992 126.787 14.8984 126.476 15.0427C126.183 15.187 125.944 15.3944 125.761 15.6649C125.578 15.9174 125.486 16.2421 125.486 16.6389C125.486 17.4145 125.734 17.9556 126.228 18.2622C126.723 18.5508 127.391 18.6951 128.234 18.6951ZM127.959 6.49324C129.058 6.49324 129.983 6.62851 130.734 6.89906C131.485 7.16961 132.081 7.54839 132.52 8.03538C132.978 8.52237 133.299 9.11759 133.482 9.82102C133.683 10.5064 133.784 11.264 133.784 12.0937V20.6701C133.271 20.7784 132.493 20.9046 131.449 21.0489C130.423 21.2112 129.26 21.2924 127.959 21.2924C127.098 21.2924 126.311 21.2112 125.596 21.0489C124.882 20.8866 124.268 20.625 123.755 20.2643C123.261 19.9036 122.867 19.4346 122.574 18.8574C122.299 18.2803 122.162 17.5678 122.162 16.7201C122.162 15.9084 122.318 15.223 122.629 14.6639C122.959 14.1048 123.398 13.6538 123.948 13.3111C124.497 12.9504 125.129 12.6979 125.844 12.5536C126.576 12.3913 127.337 12.3101 128.124 12.3101C128.491 12.3101 128.875 12.3371 129.278 12.3913C129.681 12.4273 130.112 12.4995 130.57 12.6077V12.0666C130.57 11.6878 130.524 11.3271 130.432 10.9844C130.341 10.6417 130.176 10.3441 129.938 10.0916C129.718 9.82102 129.416 9.6136 129.031 9.4693C128.665 9.32501 128.197 9.25286 127.63 9.25286C126.86 9.25286 126.155 9.30697 125.514 9.41519C124.873 9.52341 124.351 9.64967 123.948 9.79396L123.536 7.14256C123.957 6.99826 124.571 6.85397 125.377 6.70968C126.183 6.56538 127.043 6.49324 127.959 6.49324Z" fill="#9CA3AF"/>
<path d="M140.466 13.8793C140.466 15.3222 140.814 16.4585 141.51 17.2882C142.206 18.0999 143.168 18.5057 144.395 18.5057C144.926 18.5057 145.375 18.4877 145.741 18.4516C146.126 18.3975 146.437 18.3434 146.675 18.2893V10.1727C146.382 9.97433 145.989 9.79396 145.494 9.63163C145.018 9.45127 144.505 9.36108 143.955 9.36108C142.746 9.36108 141.858 9.76691 141.29 10.5786C140.741 11.3902 140.466 12.4905 140.466 13.8793ZM150 20.5619C149.341 20.7603 148.507 20.9407 147.5 21.103C146.511 21.2653 145.466 21.3465 144.367 21.3465C143.232 21.3465 142.215 21.1752 141.318 20.8325C140.42 20.4898 139.651 20.0028 139.01 19.3715C138.387 18.7222 137.901 17.9466 137.553 17.0447C137.224 16.1249 137.059 15.0968 137.059 13.9605C137.059 12.8422 137.196 11.8321 137.471 10.9303C137.764 10.0104 138.185 9.22581 138.735 8.57648C139.284 7.92716 139.953 7.43115 140.741 7.08845C141.528 6.72771 142.435 6.54735 143.461 6.54735C144.157 6.54735 144.77 6.62851 145.302 6.79084C145.833 6.95317 146.291 7.13354 146.675 7.33195V0.541102L150 0V20.5619Z" fill="#9CA3AF"/>
</svg>
